<?xml version="1.0" standalone="no"?>
<!DOCTYPE svg PUBLIC "-//W3C//DTD SVG 20010904//EN"
 "http://www.w3.org/TR/2001/REC-SVG-20010904/DTD/svg10.dtd">
<svg version="1.0" xmlns="http://www.w3.org/2000/svg"
 width="72.000000pt" height="72.000000pt" viewBox="0 0 72.000000 72.000000"
 preserveAspectRatio="xMidYMid meet">
<metadata>
Created by potrace 1.14, written by Peter Selinger 2001-2017
</metadata>
<g transform="translate(0.000000,72.000000) scale(0.100000,-0.100000)"
fill="#000000" stroke="none">
<path d="M695 713 c-11 -2 -27 -7 -35 -10 -8 -3 -26 -8 -40 -10 -14 -2 -36
-11 -49 -20 -13 -8 -20 -10 -17 -4 5 8 -1 8 -21 0 -29 -11 -69 -21 -90 -22 -7
0 -13 -4 -13 -9 0 -5 -4 -7 -9 -4 -12 8 -42 -4 -36 -14 3 -5 -3 -6 -12 -4 -10
3 -52 -5 -93 -16 -41 -12 -83 -21 -93 -21 -19 0 -22 -10 -6 -26 8 -8 7 -13 -3
-18 -7 -5 -10 -5 -6 0 15 16 -12 34 -38 25 -13 -5 -24 -7 -24 -4 0 4 -7 0 -17
-7 -9 -8 -18 -13 -20 -11 -14 10 -13 -2 2 -18 10 -11 22 -17 27 -14 4 3 7 0 6
-8 -2 -7 3 -12 10 -10 6 1 11 -4 10 -10 -2 -7 3 -12 10 -10 8 1 11 -2 8 -7 -3
-5 1 -14 9 -21 21 -17 19 -30 -4 -30 -11 0 -23 -5 -26 -10 -4 -6 -10 -8 -15
-5 -5 3 -24 -1 -42 -8 -18 -8 -39 -12 -46 -9 -9 3 -13 -2 -10 -14 2 -12 11
-18 22 -16 10 2 16 -1 12 -6 -3 -5 31 -46 75 -91 65 -67 83 -80 94 -71 12 10
13 8 10 -7 -5 -30 10 -49 28 -35 11 9 14 9 14 -3 0 -8 -4 -12 -9 -9 -4 3 -8 0
-8 -5 0 -10 14 -15 33 -12 5 1 6 -2 3 -7 -2 -4 11 -26 31 -47 40 -43 68 -55
60 -25 -3 11 -1 20 5 22 5 2 10 20 11 41 1 20 5 37 9 37 4 0 8 10 10 22 3 22
5 21 44 -15 23 -20 45 -33 49 -29 5 4 5 2 2 -4 -4 -6 2 -19 13 -29 16 -14 20
-15 24 -4 7 19 36 122 36 126 0 1 -8 0 -17 -3 -10 -2 -8 1 5 7 20 11 26 31 25
77 -1 6 4 12 9 12 6 0 8 6 5 14 -3 7 0 19 6 25 6 6 8 11 5 11 -4 0 0 16 8 35
8 19 12 35 9 35 -3 0 -1 8 4 18 5 9 11 31 14 47 3 17 9 39 13 49 6 15 4 18 -7
12 -8 -4 -6 -1 5 8 12 9 17 23 13 36 -3 11 -1 18 4 14 5 -3 9 6 9 19 0 14 7
41 16 62 17 42 17 43 -11 38z m-69 -55 c3 -4 -1 -5 -10 -4 -8 1 -18 5 -22 8
-3 4 1 5 10 4 8 -1 18 -5 22 -8z m-120 -54 c1 -9 0 -13 -4 -10 -3 4 -7 14 -8
22 -1 9 0 13 4 10 3 -4 7 -14 8 -22z m40 11 c-1 -8 -5 -17 -8 -21 -5 -4 -4 16
1 34 3 9 9 -1 7 -13z m-76 -29 c0 -3 -4 -8 -10 -11 -5 -3 -10 -1 -10 4 0 6 5
11 10 11 6 0 10 -2 10 -4z m156 -8 c3 -4 -1 -5 -10 -4 -8 1 -18 5 -22 8 -3 4
1 5 10 4 8 -1 18 -5 22 -8z m-319 -27 c0 -11 -5 -18 -9 -15 -4 3 -5 11 -1 19
7 21 12 19 10 -4z m68 9 c-3 -5 -12 -10 -18 -10 -7 0 -6 4 3 10 19 12 23 12
15 0z m155 0 c0 -5 -4 -10 -10 -10 -5 0 -10 5 -10 10 0 6 5 10 10 10 6 0 10
-4 10 -10z m95 -19 c-9 -8 -36 -10 -30 -2 2 4 11 8 20 8 8 0 13 -3 10 -6z
m-280 -40 c-9 -8 -36 -10 -30 -2 2 4 11 8 20 8 8 0 13 -3 10 -6z m-95 -15 c0
-2 -7 -7 -16 -10 -8 -3 -12 -2 -9 4 6 10 25 14 25 6z m-60 -22 c0 -8 -19 -13
-24 -6 -3 5 1 9 9 9 8 0 15 -2 15 -3z m440 2 c0 -3 -4 -8 -10 -11 -5 -3 -10
-1 -10 4 0 6 5 11 10 11 6 0 10 -2 10 -4z m-445 -125 c-8 -7 -45 -9 -50 -1 -2
3 9 6 25 6 17 0 27 -2 25 -5z m325 -1 c0 -5 -2 -10 -4 -10 -3 0 -8 5 -11 10
-3 6 -1 10 4 10 6 0 11 -4 11 -10z m-236 -38 c3 -5 -1 -9 -9 -9 -8 0 -12 4 -9
9 3 4 7 8 9 8 2 0 6 -4 9 -8z m276 -2 c0 -5 -5 -10 -11 -10 -5 0 -7 5 -4 10 3
6 8 10 11 10 2 0 4 -4 4 -10z m-363 -45 c0 -8 -4 -12 -9 -9 -5 3 -6 10 -3 15
9 13 12 11 12 -6z m79 -37 c3 -4 -1 -5 -10 -4 -8 1 -18 5 -22 8 -3 4 1 5 10 4
8 -1 18 -5 22 -8z m199 2 c3 -5 1 -10 -4 -10 -6 0 -11 5 -11 10 0 6 2 10 4 10
3 0 8 -4 11 -10z m41 -36 c1 -9 0 -13 -4 -10 -3 4 -7 14 -8 22 -1 9 0 13 4 10
3 -4 7 -14 8 -22z m-161 -3 c-9 -8 -36 -10 -30 -2 2 4 11 8 20 8 8 0 13 -3 10
-6z m202 -46 c0 -8 -4 -12 -9 -9 -5 3 -6 10 -3 15 9 13 12 11 12 -6z m-180
-30 c0 -8 -4 -12 -9 -9 -5 3 -6 10 -3 15 9 13 12 11 12 -6z"/>
</g>
</svg>
